<svg width="200" height="200" viewBox="0 0 200 200" fill="none" xmlns="http://www.w3.org/2000/svg">
<rect width="200" height="200" fill="#FAFAFA"/>
<path d="M26.4106 174C25.1863 174 24.2243 173.651 23.5247 172.952C22.8251 172.428 22.8251 171.992 23.5247 171.642C27.3725 170.944 30.6956 169.547 33.494 167.451C36.2924 165.181 38.5662 162.387 40.3152 159.069C43.9881 152.957 47.5735 146.845 51.0716 140.733C54.5696 134.446 57.9801 128.159 61.3032 121.873L86.4889 75.508C90.5116 68.3481 94.0096 61.4501 96.983 54.8142C100.131 48.1782 102.58 43.3758 104.329 40.4071C105.553 38.1369 107.652 36.1286 110.625 34.3823C113.773 32.4614 116.834 30.977 119.807 29.9292C118.758 29.9292 117.709 29.9292 116.659 29.9292C115.61 29.7546 114.473 29.6673 113.249 29.6673C107.827 29.6673 101.88 30.0165 95.4089 30.715C89.1124 31.2389 82.9035 32.1121 76.7819 33.3345C70.8353 34.5569 65.5883 36.2159 61.0409 38.3115C56.4935 40.4071 53.4327 42.9392 51.8586 45.908C51.159 47.4796 50.5468 49.0513 50.0221 50.623C49.4974 52.1947 49.2351 53.7664 49.2351 55.3381C49.2351 59.3546 50.6343 62.236 53.4327 63.9823C53.6076 63.9823 53.6951 64.1569 53.6951 64.5062C53.6951 64.8555 53.3453 65.2047 52.6457 65.554C52.121 65.9032 51.5963 65.9906 51.0716 65.8159C49.4974 64.9428 47.5735 62.8472 45.2998 59.5292C43.0261 56.0366 41.6269 53.1552 41.1022 50.8849C40.5775 48.7894 40.3152 46.8684 40.3152 45.1221C40.3152 40.5817 41.8018 37.0891 44.7751 34.6442C47.7484 32.0248 51.5088 30.1912 56.0562 29.1434C60.6036 27.9209 65.2385 27.2224 69.9608 27.0478C74.858 26.6985 79.1431 26.5239 82.816 26.5239C88.4128 26.5239 95.0591 26.5239 102.755 26.5239C110.45 26.3493 117.534 26.2619 124.005 26.2619C125.579 26.2619 127.328 26.2619 129.252 26.2619C131.176 26.0873 133.187 26 135.286 26C140.009 26 144.906 26.2619 149.978 26.7858C155.05 27.3097 159.685 28.4448 163.882 30.1911C168.08 31.9375 171.316 34.6442 173.589 38.3115C175.863 42.1534 177 46.3445 177 50.8849C177 55.2507 176.125 59.6165 174.376 63.9823C172.627 68.3481 170.529 72.1027 168.08 75.246C166.506 77.167 164.67 79.0879 162.571 81.0088C160.472 82.9298 158.111 84.7634 155.487 86.5097C152.864 88.256 149.978 89.915 146.83 91.4867C143.856 92.8838 140.271 94.0189 136.073 94.892C135.898 94.892 135.723 95.154 135.549 95.6779C135.549 96.2018 135.723 96.4637 136.073 96.4637C136.948 96.6383 138.434 96.9003 140.533 97.2496C142.807 97.4242 144.818 97.6861 146.567 98.0354C152.689 99.2578 157.761 101.877 161.784 105.894C165.981 109.736 168.08 114.975 168.08 121.611C168.08 129.12 166.069 136.018 162.046 142.304C158.198 148.591 153.214 154.005 147.092 158.545C140.97 162.911 134.587 166.316 127.94 168.761C119.545 171.904 109.926 173.476 99.0818 173.476C92.6105 173.476 85.8768 172.865 78.8807 171.642C71.8847 170.42 65.5009 168.324 59.7291 165.356C58.5048 164.657 57.2805 164.133 56.0562 163.784C54.8319 163.26 53.5202 162.998 52.121 162.998C49.6723 162.998 47.0488 163.697 44.2504 165.094C42.5014 165.792 40.2277 167.102 37.4293 169.023C34.6309 170.944 31.4827 172.516 27.9847 173.738C27.6349 173.913 27.1102 174 26.4106 174ZM90.6865 169.809C95.234 169.809 99.7814 169.372 104.329 168.499C108.876 167.451 112.986 166.229 116.659 164.832C123.131 162.387 129.077 158.982 134.499 154.616C139.921 150.076 144.294 144.749 147.617 138.637C151.115 132.35 152.864 125.365 152.864 117.681C152.864 112.617 151.552 108.775 148.928 106.156C146.305 103.362 142.982 101.441 138.959 100.393C134.936 99.3451 130.739 98.8212 126.366 98.8212C123.043 98.8212 119.895 98.9959 116.922 99.3451C113.948 99.6944 111.237 100.131 108.789 100.655C103.892 101.528 99.519 102.488 95.6712 103.536C94.9716 103.187 95.0591 102.576 95.9336 101.703C96.8081 100.655 97.9449 99.5198 99.3441 98.2973C100.918 97.0749 102.143 96.1145 103.017 95.4159C103.367 95.0667 104.066 94.5428 105.116 93.8443C106.34 92.9711 107.302 92.5345 108.002 92.5345C116.572 92.5345 124.18 92.0106 130.826 90.9628C137.647 89.915 143.507 87.3829 148.404 83.3664C153.301 79.1752 157.324 72.7139 160.472 63.9823C162.046 59.4419 162.833 54.9888 162.833 50.623C162.833 45.5587 161.609 41.1929 159.16 37.5257C156.712 33.6838 152.776 31.4136 147.354 30.715C146.655 30.5404 145.868 30.4531 144.993 30.4531C144.119 30.4531 143.244 30.4531 142.37 30.4531C139.047 30.4531 135.374 30.8897 131.351 31.7628C127.503 32.636 124.617 34.295 122.693 36.7398C118.321 42.5026 114.123 49.0513 110.101 56.3858C106.078 63.5457 102.23 70.8802 98.5571 78.3894C94.8842 85.7239 91.3861 92.6218 88.063 99.0832C84.0403 106.942 79.9302 114.887 75.7325 122.92C71.5349 130.953 67.4248 139.074 63.402 147.281C62.3526 149.377 61.8279 151.385 61.8279 153.306C61.8279 156.799 64.0142 160.204 68.3867 163.522C71.36 165.792 74.7706 167.451 78.6184 168.499C82.6411 169.372 86.6638 169.809 90.6865 169.809Z" fill="#AAAAAA"/>
</svg>
