<svg width="100" height="96" viewBox="0 0 100 96" fill="none" xmlns="http://www.w3.org/2000/svg">
<path d="M2.21465 96C1.41965 96 0.795003 95.7735 0.340715 95.3204C-0.113572 94.9805 -0.113572 94.6973 0.340715 94.4708C2.8393 94.0177 4.99716 93.1115 6.81431 91.7522C8.63146 90.2796 10.1079 88.4673 11.2436 86.315C13.6286 82.3504 15.9568 78.3858 18.2283 74.4212C20.4997 70.3434 22.7144 66.2655 24.8722 62.1876L41.2266 32.1133C43.8387 27.469 46.1102 22.9947 48.0409 18.6903C50.0852 14.3858 51.6752 11.2708 52.8109 9.34513C53.6059 7.87256 54.9688 6.56991 56.8995 5.43717C58.9438 4.19115 60.9313 3.22831 62.862 2.54867C62.1806 2.54867 61.4991 2.54867 60.8177 2.54867C60.1363 2.43539 59.3981 2.37876 58.6031 2.37876C55.0823 2.37876 51.2209 2.60531 47.0187 3.05841C42.9302 3.39823 38.8984 3.9646 34.9233 4.75752C31.0619 5.55044 27.6547 6.62655 24.7019 7.98584C21.749 9.34513 19.7615 10.9876 18.7394 12.9133C18.2851 13.9327 17.8876 14.9522 17.5468 15.9717C17.2061 16.9911 17.0358 18.0106 17.0358 19.0301C17.0358 21.6354 17.9443 23.5044 19.7615 24.6372C19.8751 24.6372 19.9319 24.7504 19.9319 24.977C19.9319 25.2035 19.7047 25.4301 19.2504 25.6566C18.9097 25.8832 18.569 25.9398 18.2283 25.8265C17.2061 25.2602 15.9568 23.9009 14.4804 21.7487C13.004 19.4832 12.0954 17.6142 11.7547 16.1416C11.414 14.7823 11.2436 13.5363 11.2436 12.4035C11.2436 9.4584 12.209 7.19292 14.1397 5.60708C16.0704 3.90797 18.5122 2.71858 21.4651 2.03893C24.4179 1.24602 27.4276 0.792915 30.494 0.679636C33.674 0.45309 36.4566 0.339818 38.8416 0.339818C42.4759 0.339818 46.7916 0.339818 51.7888 0.339818C56.7859 0.226545 61.3856 0.169909 65.5877 0.169909C66.6099 0.169909 67.7456 0.169909 68.9949 0.169909C70.2442 0.056636 71.5503 0 72.9131 0C75.9796 0 79.1596 0.169911 82.4531 0.509729C85.7467 0.849555 88.7564 1.58584 91.4821 2.71858C94.2078 3.85132 96.3089 5.60708 97.7853 7.98584C99.2618 10.4779 100 13.1965 100 16.1416C100 18.9734 99.4321 21.8053 98.2964 24.6372C97.1607 27.469 95.7978 29.9044 94.2078 31.9434C93.1857 33.1894 91.9932 34.4354 90.6303 35.6814C89.2675 36.9274 87.7342 38.1168 86.0307 39.2496C84.3271 40.3823 82.4531 41.4584 80.4089 42.4779C78.4781 43.3841 76.1499 44.1204 73.4242 44.6867C73.3106 44.6867 73.197 44.8566 73.0835 45.1965C73.0835 45.5363 73.197 45.7062 73.4242 45.7062C73.992 45.8195 74.9574 45.9894 76.3203 46.2159C77.7967 46.3292 79.1028 46.4991 80.2385 46.7257C84.2135 47.5186 87.5071 49.2177 90.1192 51.823C92.845 54.315 94.2078 57.7133 94.2078 62.0177C94.2078 66.8885 92.9018 71.3628 90.2896 75.4407C87.791 79.5186 84.5542 83.0301 80.5792 85.9752C76.6042 88.8071 72.4588 91.0159 68.1431 92.6018C62.6917 94.6407 56.4452 95.6602 49.4037 95.6602C45.2016 95.6602 40.8291 95.2637 36.2862 94.4708C31.7433 93.6779 27.598 92.3186 23.8501 90.3929C23.0551 89.9398 22.2601 89.6 21.4651 89.3735C20.6701 89.0336 19.8183 88.8637 18.9097 88.8637C17.3197 88.8637 15.6161 89.3168 13.799 90.223C12.6633 90.6761 11.1868 91.5257 9.36968 92.7717C7.55253 94.0177 5.50823 95.0372 3.2368 95.8301C3.00965 95.9434 2.66894 96 2.21465 96ZM43.9523 93.2814C46.9052 93.2814 49.858 92.9982 52.8109 92.4319C55.7638 91.7522 58.4327 90.9593 60.8177 90.0531C65.0199 88.4673 68.8813 86.2584 72.402 83.4265C75.9228 80.4814 78.7621 77.0265 80.9199 73.0619C83.1914 68.9841 84.3271 64.4531 84.3271 59.469C84.3271 56.1841 83.4753 53.692 81.7717 51.9929C80.0681 50.1805 77.9103 48.9345 75.2981 48.2549C72.686 47.5752 69.9602 47.2354 67.121 47.2354C64.9631 47.2354 62.9188 47.3487 60.9881 47.5752C59.0573 47.8018 57.297 48.085 55.707 48.4248C52.527 48.9911 49.6877 49.6142 47.1891 50.2938C46.7348 50.0673 46.7916 49.6708 47.3595 49.1044C47.9273 48.4248 48.6655 47.6885 49.5741 46.8956C50.5962 46.1027 51.3913 45.4796 51.9591 45.0265C52.1863 44.8 52.6405 44.4602 53.322 44.0071C54.117 43.4407 54.7416 43.1575 55.1959 43.1575C60.7609 43.1575 65.7013 42.8177 70.017 42.1381C74.4463 41.4584 78.251 39.8159 81.431 37.2106C84.611 34.492 87.2232 30.3009 89.2675 24.6372C90.2896 21.692 90.8007 18.8035 90.8007 15.9717C90.8007 12.6867 90.0057 9.85486 88.4157 7.4761C86.8257 4.98406 84.2703 3.5115 80.7496 3.05841C80.2953 2.94513 79.7842 2.88849 79.2164 2.88849C78.6485 2.88849 78.0806 2.88849 77.5128 2.88849C75.3549 2.88849 72.9699 3.17167 70.3577 3.73804C67.8592 4.30441 65.9852 5.38052 64.7359 6.96637C61.8966 10.7044 59.1709 14.9522 56.5588 19.7097C53.9466 24.354 51.448 29.1115 49.063 33.9823C46.678 38.7398 44.4066 43.2142 42.2487 47.4053C39.6366 52.5027 36.9676 57.6566 34.2419 62.8673C31.5162 68.0779 28.8472 73.3451 26.2351 78.669C25.5537 80.0283 25.2129 81.331 25.2129 82.577C25.2129 84.8425 26.6326 87.0513 29.4719 89.2035C31.4026 90.6761 33.6173 91.7522 36.1158 92.4319C38.728 92.9982 41.3401 93.2814 43.9523 93.2814Z" fill="#AAAAAA"/>
</svg>
