<svg width="1000" height="137" viewBox="0 0 1000 137" fill="none" xmlns="http://www.w3.org/2000/svg">
<path d="M966.102 106.056C945.528 106.056 931.04 91.2781 931.04 70.1251C931.04 48.8273 945.528 33.9043 966.102 33.9043C988.993 33.9043 996.382 52.7391 996.672 53.3187C1001.02 61.8668 999.86 74.9063 999.86 77.5142H951.614C953.497 84.034 960.162 87.9458 966.247 87.9458C973.926 87.9458 977.837 84.7584 979.286 81.8607L997.397 88.6702C994.064 96.9286 983.922 106.056 966.102 106.056ZM979.721 64.6196C977.982 56.7959 973.491 51.8698 966.102 51.8698C958.858 51.8698 953.497 56.3612 951.758 64.6196H979.721Z" fill="#101010"/>
<path d="M888.052 78.2365C889.791 84.6113 896.311 88.0885 900.222 88.0885C905.438 88.0885 908.046 86.4948 908.046 83.8869C908.046 81.7137 903.989 80.12 897.759 77.8018C887.907 74.1797 873.999 68.9639 873.999 54.9102C873.999 41.0014 886.314 33.1777 902.106 33.1777C911.668 33.1777 924.273 38.8282 928.475 51.8677L910.944 58.6772C908.336 51.5779 904.134 51.2882 902.106 51.2882C897.615 51.2882 896.021 52.737 896.021 54.9102C896.021 56.7937 899.933 58.2426 906.018 60.5607C915.87 64.1828 929.924 69.5435 929.924 83.3074C929.924 97.2162 918.333 106.199 900.222 106.199C888.777 106.199 875.447 97.9406 871.391 87.509L888.052 78.2365Z" fill="#101010"/>
<path d="M821.595 73.4571C821.595 83.7438 826.955 87.9454 835.503 87.9454C843.472 87.8006 848.688 82.295 848.253 72.1532V34.0488H870.275V106.056H848.253V97.3629C843.762 103.593 836.373 105.911 829.418 105.911C811.598 105.911 799.572 94.0305 799.572 73.4571V34.0488H821.595V73.4571Z" fill="#101010"/>
<path d="M763.104 87.9442C771.507 87.9442 776.433 81.4245 776.433 69.9787C776.433 58.5329 771.507 51.8682 763.104 51.8682C754.845 51.8682 749.774 58.5329 749.774 69.9787C749.774 81.4245 754.7 87.9442 763.104 87.9442ZM763.104 33.7578C783.822 33.7578 798.455 48.6808 798.455 69.9787C798.455 91.1316 783.822 106.055 763.104 106.055C742.385 106.055 727.752 91.1316 727.752 69.9787C727.752 48.6808 742.385 33.7578 763.104 33.7578Z" fill="#101010"/>
<path d="M704.614 67.6605C704.614 56.7943 700.413 50.7092 693.603 50.7092C684.765 50.7092 679.26 57.8085 679.26 67.6605V103.157H657.237V0H679.26V40.5673C684.62 33.3232 692.444 32.4539 695.197 32.4539C714.466 32.4539 726.636 45.7831 726.636 64.618V103.157H704.614V67.6605Z" fill="#101010"/>
<path d="M622.223 106.056C601.649 106.056 587.161 91.2781 587.161 70.1251C587.161 48.8273 601.649 33.9043 622.223 33.9043C645.115 33.9043 652.504 52.7391 652.793 53.3187C657.14 61.8668 655.981 74.9063 655.981 77.5142H607.735C609.618 84.034 616.283 87.9458 622.368 87.9458C630.047 87.9458 633.958 84.7584 635.407 81.8607L653.518 88.6702C650.185 96.9286 640.044 106.056 622.223 106.056ZM635.842 64.6196C634.103 56.7959 629.612 51.8698 622.223 51.8698C614.979 51.8698 609.618 56.3612 607.879 64.6196H635.842Z" fill="#101010"/>
<path d="M545.043 106.055C525.049 106.055 512.154 91.1317 512.154 69.9787C512.154 48.8257 525.049 33.7578 545.043 33.7578C546.926 33.7578 557.358 34.0476 564.023 43.3201V0H586.045V106.055H564.023V96.6372C557.358 105.185 546.926 106.055 545.043 106.055ZM548.23 88.6686C557.213 88.6686 564.023 80.9898 564.023 70.5582C564.023 59.9817 557.213 52.158 548.23 52.158C539.392 52.158 534.177 58.8227 534.177 70.5582C534.177 82.004 539.392 88.6686 548.23 88.6686Z" fill="#101010"/>
<path d="M475.687 87.9442C484.09 87.9442 489.016 81.4245 489.016 69.9787C489.016 58.5329 484.09 51.8682 475.687 51.8682C467.428 51.8682 462.357 58.5329 462.357 69.9787C462.357 81.4245 467.283 87.9442 475.687 87.9442ZM475.687 33.7578C496.405 33.7578 511.038 48.6808 511.038 69.9787C511.038 91.1316 496.405 106.055 475.687 106.055C454.968 106.055 440.335 91.1316 440.335 69.9787C440.335 48.6808 454.968 33.7578 475.687 33.7578Z" fill="#101010"/>
<path d="M412.27 85.3363C416.327 85.3363 421.253 82.7284 425.02 78.6717L439.218 94.1742C433.278 101.129 421.977 106.055 412.705 106.055C391.407 106.055 376.339 91.1316 376.339 69.9787C376.339 48.6808 391.407 33.7578 412.705 33.7578C423.136 33.7578 432.843 38.3941 439.218 45.6383L425.02 60.9959C421.108 56.9392 416.327 54.4761 412.27 54.4761C403.432 54.4761 398.361 60.1266 398.361 69.9787C398.361 79.6859 403.432 85.3363 412.27 85.3363Z" fill="#101010"/>
<path d="M331.468 134.743H307.417L324.079 96.6385L295.247 34.0488H319.587L335.525 72.7327L351.172 34.0488H375.223L348.419 95.914L331.468 134.743Z" fill="#101010"/>
<path d="M258.055 87.9446C266.893 87.9446 272.108 81.2799 272.108 69.6892C272.108 58.0986 266.893 51.4339 258.055 51.4339C249.072 51.4339 242.263 59.1128 242.263 69.6892C242.263 80.2657 249.072 87.9446 258.055 87.9446ZM261.242 33.6133C281.236 33.6133 294.131 48.5363 294.131 69.6892C294.131 90.9871 281.236 105.91 261.242 105.91C259.359 105.91 248.927 105.62 242.263 96.3478V136.046H220.24V33.7582H242.263V43.1756C248.927 34.6275 259.359 33.6133 261.242 33.6133Z" fill="#101010"/>
<path d="M183.047 87.9446C191.885 87.9446 197.101 81.2799 197.101 69.6892C197.101 58.0986 191.885 51.4339 183.047 51.4339C174.064 51.4339 167.255 59.1128 167.255 69.6892C167.255 80.2657 174.064 87.9446 183.047 87.9446ZM186.234 33.6133C206.228 33.6133 219.123 48.5363 219.123 69.6892C219.123 90.9871 206.228 105.91 186.234 105.91C184.351 105.91 173.919 105.62 167.255 96.3478V136.046H145.232V33.7582H167.255V43.1756C173.919 34.6275 184.351 33.6133 186.234 33.6133Z" fill="#101010"/>
<path d="M103.259 106.201C83.2654 106.201 70.5156 91.2781 70.5156 70.1251C70.5156 48.9722 83.2654 34.0492 103.259 34.0492C109.199 34.0492 117.168 36.2224 122.094 42.8871V33.9043H144.116V106.056H122.094V97.5081C117.168 104.028 109.199 106.201 103.259 106.201ZM106.736 88.3805C115.285 88.3805 121.949 80.7016 122.094 70.1251C121.949 59.5487 115.285 51.8698 106.736 51.8698C97.7537 51.8698 92.5379 58.5345 92.5379 70.1251C92.5379 81.7158 97.7537 88.3805 106.736 88.3805Z" fill="#101010"/>
<path d="M47.3769 67.6605C47.3769 56.7943 43.1753 50.7092 36.3657 50.7092C27.5278 50.7092 22.0223 57.8085 22.0223 67.6605V103.157H0V0H22.0223V40.5673C27.383 33.3232 35.2067 32.4539 37.9594 32.4539C57.2289 32.4539 69.3991 45.7831 69.3991 64.618V103.157H47.3769V67.6605Z" fill="#101010"/>
</svg>
