<svg width="222" height="100" viewBox="0 0 222 100" fill="none" xmlns="http://www.w3.org/2000/svg">
<path d="M198.047 62.0424C195.014 62.0424 192.905 61.4504 191.721 60.2666C190.537 59.0827 189.945 57.6399 189.945 55.9381C189.945 53.7923 190.5 51.4985 191.61 49.0568C192.794 46.6151 193.904 44.5433 194.94 42.8415C196.124 41.0657 197.714 39.2159 199.712 37.2921C201.71 35.3683 203.893 33.7405 206.26 32.4087C208.628 31.0768 210.922 30.4109 213.142 30.4109C215.065 30.4109 216.397 30.8918 217.137 31.8537C217.877 32.7416 218.247 33.8145 218.247 35.0724C218.247 37.3661 217.544 39.2529 216.138 40.7327C214.806 42.2126 213.142 43.4334 211.144 44.3953C209.146 45.2832 207.222 46.0232 205.372 46.6151C204.263 46.9111 202.968 47.207 201.488 47.503C200.008 47.799 198.602 47.9469 197.27 47.9469C196.752 49.2788 196.345 50.5736 196.05 51.8315C195.754 53.0894 195.606 54.2362 195.606 55.2721C195.606 56.53 195.902 57.5659 196.493 58.3798C197.159 59.1937 198.232 59.6006 199.712 59.6006C200.304 59.6006 201.007 59.5267 201.821 59.3787C202.635 59.2307 203.523 59.0087 204.485 58.7127C206.704 57.9728 208.887 56.789 211.033 55.1611C213.179 53.5333 215.139 51.7945 216.915 49.9447C218.765 48.0209 220.171 46.4301 221.133 45.1723C221.355 45.3942 221.466 45.6532 221.466 45.9492C221.466 46.3191 221.207 46.9111 220.689 47.725C219.209 49.7967 217.285 51.9425 214.917 54.1623C212.55 56.382 209.923 58.2688 207.037 59.8226C204.152 61.3025 201.155 62.0424 198.047 62.0424ZM198.158 45.7272C199.12 45.8012 200.193 45.8012 201.377 45.7272C202.635 45.5792 203.856 45.3202 205.04 44.9503C208.073 44.0624 210.256 42.6565 211.588 40.7327C212.994 38.735 213.697 36.9592 213.697 35.4053C213.697 34.5174 213.512 33.7775 213.142 33.1856C212.772 32.5936 212.18 32.2977 211.366 32.2977C209.22 32.2977 207.296 33.1116 205.594 34.7394C203.893 36.2932 202.413 38.106 201.155 40.1778C199.897 42.2496 198.898 44.0994 198.158 45.7272Z" fill="#AAAAAA"/>
<path d="M128.249 100C125.437 100 122.737 99.3341 120.147 98.0022C117.483 96.7444 115.522 94.7836 114.265 92.1199C113.821 91.158 113.525 90.1221 113.377 89.0122C113.229 87.9763 113.155 86.9404 113.155 85.9046V84.6837C113.155 84.0918 113.229 83.5368 113.377 83.0189C113.525 82.5749 113.895 82.353 114.486 82.353C114.708 82.353 114.819 82.427 114.819 82.5749C114.819 83.0189 114.782 83.4628 114.708 83.9068C114.56 84.3507 114.486 84.8317 114.486 85.3496C114.486 88.7533 115.596 91.343 117.816 93.1188C119.962 94.8946 122.663 95.7825 125.918 95.7825C127.25 95.7825 128.619 95.6345 130.025 95.3385C131.431 95.0426 132.762 94.6356 134.02 94.1177C138.682 92.1199 142.751 89.3082 146.229 85.6826C149.707 82.057 152.74 77.9505 155.33 73.363C157.92 68.7755 160.213 64.077 162.211 59.2675C164.357 54.0141 166.392 48.8347 168.316 43.7292C170.313 38.5498 172.533 33.4814 174.975 28.5239C177.269 23.9365 179.71 20.4958 182.3 18.2021C184.89 15.9083 187.479 14.7615 190.069 14.7615C190.735 14.7615 191.364 14.9465 191.956 15.3164C192.622 15.6864 192.918 16.2783 192.844 17.0922L192.622 20.1999C192.622 20.4218 192.474 20.5328 192.178 20.5328C192.178 20.5328 192.141 20.5328 192.067 20.5328C192.067 20.5328 192.067 20.4958 192.067 20.4218C192.067 19.5339 191.734 18.942 191.068 18.646C190.476 18.2761 189.884 18.0911 189.292 18.0911C186.777 18.0911 184.52 18.979 182.522 20.7548C180.598 22.4566 178.896 24.6764 177.417 27.4141C175.937 30.1518 174.679 33.0374 173.643 36.0711C172.607 39.0308 171.756 41.7685 171.09 44.2842C171.608 43.8402 172.533 42.9153 173.865 41.5095C175.271 40.1037 176.899 38.5868 178.748 36.959C180.598 35.3312 182.485 33.9253 184.409 32.7415C186.333 31.5576 188.108 30.9657 189.736 30.9657C190.698 30.9657 191.253 31.4096 191.401 32.2975C191.623 33.1114 191.66 33.8883 191.512 34.6283C191.142 37.366 190.217 40.3256 188.737 43.5073C187.257 46.6889 185.334 49.7226 182.966 52.6083C180.672 55.42 178.082 57.7137 175.197 59.4895C172.385 61.2653 169.425 62.1532 166.318 62.1532C165.948 62.1532 165.43 62.1162 164.764 62.0422C164.172 62.0422 163.802 61.9682 163.654 61.8202C162.1 66.4817 160.102 71.2542 157.661 76.1376C155.219 81.0211 152.296 85.4236 148.893 89.3452C145.415 93.3407 141.309 96.3374 136.573 98.3352C134.057 99.4451 131.283 100 128.249 100ZM167.983 60.2664C169.092 60.2664 170.35 59.8225 171.756 58.9346C173.236 57.9727 174.346 57.1218 175.086 56.3818C175.974 55.5679 177.01 54.3101 178.193 52.6083C179.451 50.8325 180.672 48.9087 181.856 46.8369C183.114 44.7651 184.15 42.7674 184.964 40.8436C185.778 38.9198 186.185 37.366 186.185 36.1821C186.185 35.8121 186.111 35.4792 185.963 35.1832C185.815 34.8872 185.556 34.7393 185.186 34.7393C184.52 34.7393 183.632 35.1462 182.522 35.9601C181.412 36.774 180.228 37.7729 178.97 38.9568C177.787 40.0667 176.677 41.1765 175.641 42.2864C174.605 43.3223 173.865 44.0992 173.421 44.6172C172.681 45.5051 171.682 46.7999 170.424 48.5017C169.166 50.2035 168.057 51.9423 167.095 53.7181C166.133 55.42 165.652 56.8628 165.652 58.0467C165.652 59.5265 166.429 60.2664 167.983 60.2664Z" fill="#AAAAAA"/>
<path d="M145.902 61.4871C145.162 61.4871 144.533 61.3391 144.015 61.0431C143.497 60.7472 143.238 60.1922 143.238 59.3783C143.238 58.3424 143.497 57.1586 144.015 55.8267C144.533 54.4949 145.125 53.2 145.791 51.9422C146.457 50.6103 147.049 49.5374 147.567 48.7235C144.977 51.4612 142.276 54.0509 139.465 56.4926C138.059 57.6765 136.505 58.7864 134.803 59.8223C133.101 60.8582 131.289 61.3761 129.365 61.3761C128.625 61.3761 128.107 61.1541 127.811 60.7102C127.515 60.1922 127.367 59.6003 127.367 58.9344C127.367 58.5644 127.404 58.3054 127.478 58.1575C127.848 55.2718 128.773 52.2751 130.253 49.1675C131.733 46.0598 133.545 43.1371 135.691 40.3994C137.837 37.6617 140.02 35.442 142.239 33.7402C144.755 31.8164 147.53 30.8545 150.564 30.8545H163.327C163.697 30.8545 163.882 31.0025 163.882 31.2984C163.882 31.8904 163.549 32.1863 162.883 32.1863C162.143 32.1863 161.403 32.6673 160.663 33.6292C159.924 34.5171 159.369 35.257 158.999 35.8489C158.481 36.6628 157.667 38.0317 156.557 39.9555C155.447 41.8793 154.3 43.988 153.116 46.2818C152.006 48.5015 151.045 50.5733 150.231 52.4971C149.417 54.4209 149.01 55.8267 149.01 56.7146C149.01 57.7505 149.528 58.2684 150.564 58.2684C151.673 58.2684 152.931 57.7505 154.337 56.7146C155.743 55.6787 157.149 54.4209 158.555 52.941C160.035 51.3872 161.366 49.8704 162.55 48.3905C163.808 46.8367 164.807 45.6159 165.547 44.728C165.991 45.1719 165.954 45.8008 165.436 46.6147C164.992 47.3547 164.585 47.9466 164.215 48.3905C162.735 50.3143 161.033 52.3121 159.11 54.3839C157.186 56.3817 155.077 58.0835 152.783 59.4893C150.564 60.8212 148.27 61.4871 145.902 61.4871ZM133.915 57.6025C134.803 57.6025 136.024 56.9736 137.578 55.7157C139.206 54.3839 140.945 52.7561 142.794 50.8323C144.644 48.8345 146.383 46.7627 148.011 44.617C149.639 42.3972 150.971 40.3994 152.006 38.6236C153.116 36.7738 153.671 35.368 153.671 34.4061C153.671 33.5922 153.412 33.0373 152.894 32.7413C152.45 32.4453 151.858 32.2973 151.119 32.2973C149.935 32.2973 148.64 32.7413 147.234 33.6292C145.902 34.4431 144.829 35.257 144.015 36.0709C143.127 36.8848 142.055 38.1797 140.797 39.9555C139.613 41.6573 138.429 43.5441 137.245 45.6159C136.061 47.6876 135.062 49.6854 134.248 51.6092C133.434 53.533 133.027 55.0868 133.027 56.2707C133.027 57.1586 133.323 57.6025 133.915 57.6025Z" fill="#AAAAAA"/>
<path d="M95.5535 65.4827C93.2598 65.4827 91.077 64.8168 89.0053 63.4849C86.9335 62.2271 85.3797 60.2663 84.3438 57.6026C83.9738 56.6407 83.7148 55.6048 83.5669 54.4949C83.4189 53.3851 83.3449 52.3492 83.3449 51.3873V50.3884C83.3449 49.7965 83.3819 49.2045 83.4559 48.6126C83.6038 48.0207 83.9368 47.7247 84.4548 47.7247C84.6027 47.7247 84.6767 47.7987 84.6767 47.9467C84.6767 48.3906 84.6397 48.8716 84.5657 49.3895C84.5657 49.8335 84.5657 50.2774 84.5657 50.7214C84.5657 54.199 85.4166 56.8257 87.1185 58.6015C88.8943 60.3773 91.077 61.2652 93.6667 61.2652C96.2565 61.2652 98.7722 60.5253 101.214 59.0454C103.656 57.5656 105.912 55.6788 107.984 53.3851C110.056 51.0913 112.017 48.2426 113.867 44.839C115.716 41.4354 117.455 37.8468 119.083 34.0732C120.711 30.2256 122.228 26.4521 123.633 22.7525C125.113 19.0529 126.482 15.7602 127.74 12.8746C128.48 11.1728 129.849 9.72991 131.847 8.54605C133.918 7.36218 135.879 6.51128 137.729 5.99333C137.211 5.91934 136.693 5.88234 136.175 5.88234C135.731 5.80835 135.287 5.73436 134.843 5.66037L119.194 4.10654C118.01 3.95856 116.456 3.84757 114.532 3.77358C112.609 3.69959 110.574 3.66259 108.428 3.66259C105.542 3.66259 102.583 3.84757 99.5491 4.21753C96.5154 4.5135 93.7777 5.06844 91.336 5.88234C88.8943 6.69625 87.1185 7.91712 86.0086 9.54494C85.4167 10.4328 85.1207 11.4687 85.1207 12.6526C85.1207 13.8365 85.4536 14.9463 86.1196 15.9822C86.7855 17.0181 87.6364 17.832 88.6723 18.424C88.8203 18.5719 88.8943 18.6829 88.8943 18.7569C88.8943 18.9789 88.7093 19.1639 88.3393 19.3119C88.0434 19.4598 87.7104 19.4598 87.3404 19.3119C86.6745 18.9419 85.8976 18.313 85.0097 17.4251C84.1218 16.5372 83.3079 15.6123 82.568 14.6504C81.902 13.6145 81.4211 12.7636 81.1251 12.0977C80.6812 10.8398 80.4592 9.72992 80.4592 8.76802C80.4592 6.99222 81.0511 5.54938 82.235 4.4395C83.4929 3.25564 85.0837 2.36773 87.0075 1.7758C89.0053 1.10987 91.114 0.66592 93.3338 0.443943C95.6275 0.14798 97.8103 0 99.8821 0C100.696 0 101.473 0 102.213 0C102.953 0 103.656 0.0369941 104.322 0.110985C106.689 0.258967 109.168 0.406951 111.758 0.554937C114.347 0.702919 116.974 0.887897 119.638 1.10987L137.285 2.55271C138.469 2.62671 140.245 2.77469 142.612 2.99666C145.054 3.14465 147.533 3.21864 150.049 3.21864C152.786 3.21864 155.302 3.07066 157.596 2.77469C159.889 2.40473 161.406 1.7758 162.146 0.887895C162.294 0.591928 162.516 0.517938 162.812 0.665924C163.108 0.813905 163.182 0.998884 163.034 1.22086C162.812 2.10876 162.516 2.77469 162.146 3.21864C161.776 3.95856 161.258 4.77247 160.592 5.66037C160 6.54827 159.076 7.1402 157.818 7.43617C157.522 7.51016 157.115 7.58415 156.597 7.65814C156.079 7.65814 155.524 7.65814 154.932 7.65814C153.23 7.65814 151.158 7.54716 148.717 7.32518C146.349 7.02922 144.018 6.73325 141.724 6.43728C139.505 6.80724 137.581 7.84312 135.953 9.54494C134.325 11.2467 132.919 13.2075 131.736 15.4273C130.552 17.573 129.516 19.6078 128.628 21.5316C127 24.8612 125.631 27.9319 124.521 30.7436C123.485 33.4813 122.191 36.5149 120.637 39.8446C119.083 43.2482 117.455 46.6148 115.753 49.9444C114.051 53.2001 111.98 56.1598 109.538 58.8235C107.688 60.8212 105.542 62.4121 103.101 63.5959C100.659 64.8538 98.1433 65.4827 95.5535 65.4827Z" fill="#AAAAAA"/>
<path d="M70.3134 61.8198C69.5734 61.8198 68.7965 61.5609 67.9826 61.0429C67.2427 60.451 66.6508 59.896 66.2068 59.3781C66.1328 59.2301 66.4288 58.9341 67.0947 58.4902C67.7606 57.9723 68.4636 57.4913 69.2035 57.0474C70.0174 56.6034 70.4613 56.4184 70.5353 56.4924C71.1273 56.7884 71.7192 57.1213 72.3111 57.4913C72.9031 57.7873 73.532 57.8983 74.1979 57.8243H74.6419C75.0118 57.8243 75.1968 57.9353 75.1968 58.1572C75.1968 58.3792 74.9379 58.7492 74.4199 59.2671C73.754 59.7851 73.0511 60.34 72.3111 60.9319C71.6452 61.5239 70.9793 61.8198 70.3134 61.8198Z" fill="#AAAAAA"/>
<path d="M1.44284 63.263C0.924898 63.263 0.517943 63.115 0.221976 62.819C-0.0739919 62.597 -0.0739919 62.4121 0.221976 62.2641C1.8498 61.9681 3.25564 61.3762 4.43951 60.4883C5.62338 59.5264 6.58528 58.3425 7.32519 56.9367C8.87902 54.347 10.3959 51.7572 11.8757 49.1675C13.3555 46.5038 14.7984 43.8401 16.2042 41.1764L26.859 21.5316C28.5609 18.4979 30.0407 15.5753 31.2986 12.7636C32.6304 9.95188 33.6663 7.91711 34.4062 6.65925C34.9242 5.69736 35.8121 4.84645 37.0699 4.10654C38.4018 3.29262 39.6966 2.6637 40.9545 2.21975C40.5105 2.21975 40.0666 2.21975 39.6226 2.21975C39.1787 2.14576 38.6977 2.10876 38.1798 2.10876C35.8861 2.10876 33.3703 2.25674 30.6326 2.55271C27.9689 2.77468 25.3422 3.14464 22.7525 3.66259C20.2368 4.18053 18.017 4.88345 16.0932 5.77135C14.1694 6.65925 12.8746 7.73213 12.2087 8.98999C11.9127 9.65592 11.6537 10.3218 11.4317 10.9878C11.2098 11.6537 11.0988 12.3196 11.0988 12.9855C11.0988 14.6874 11.6907 15.9082 12.8746 16.6481C12.9486 16.6481 12.9856 16.7221 12.9856 16.8701C12.9856 17.0181 12.8376 17.1661 12.5416 17.3141C12.3196 17.4621 12.0977 17.499 11.8757 17.4251C11.2098 17.0551 10.3959 16.1672 9.43396 14.7614C8.47207 13.2815 7.88013 12.0607 7.65816 11.0988C7.43618 10.2109 7.32519 9.39695 7.32519 8.65703C7.32519 6.73324 7.95412 5.25341 9.21199 4.21752C10.4698 3.10765 12.0607 2.33073 13.9845 1.88678C15.9082 1.36884 17.869 1.07287 19.8668 0.998877C21.9386 0.850895 23.7514 0.776905 25.3052 0.776905C27.673 0.776905 30.4846 0.776905 33.7403 0.776905C36.9959 0.702914 39.9926 0.665918 42.7303 0.665918C43.3962 0.665918 44.1361 0.665918 44.9501 0.665918C45.764 0.591927 46.6149 0.554932 47.5028 0.554932C49.5006 0.554932 51.5723 0.665917 53.7181 0.88789C55.8639 1.10987 57.8246 1.59082 59.6004 2.33073C61.3762 3.07065 62.7451 4.21752 63.707 5.77135C64.6689 7.39917 65.1498 9.17497 65.1498 11.0988C65.1498 12.9486 64.7799 14.7983 64.04 16.6481C63.3 18.4979 62.4121 20.0888 61.3762 21.4206C60.7103 22.2345 59.9334 23.0484 59.0455 23.8623C58.1576 24.6762 57.1587 25.4532 56.0488 26.1931C54.939 26.933 53.7181 27.6359 52.3862 28.3018C51.1284 28.8938 49.6115 29.3747 47.8357 29.7447C47.7617 29.7447 47.6878 29.8557 47.6138 30.0777C47.6138 30.2996 47.6878 30.4106 47.8357 30.4106C48.2057 30.4846 48.8346 30.5956 49.7225 30.7436C50.6844 30.8176 51.5353 30.9286 52.2752 31.0765C54.865 31.5945 57.0107 32.7044 58.7125 34.4062C60.4883 36.034 61.3762 38.2537 61.3762 41.0654C61.3762 44.2471 60.5253 47.1698 58.8235 49.8335C57.1957 52.4972 55.0869 54.7909 52.4972 56.7147C49.9075 58.5645 47.2068 60.0073 44.3951 61.0432C40.8435 62.3751 36.774 63.041 32.1865 63.041C29.4488 63.041 26.6001 62.782 23.6404 62.2641C20.6807 61.7461 17.98 60.8582 15.5383 59.6004C15.0203 59.3044 14.5024 59.0824 13.9845 58.9344C13.4665 58.7125 12.9116 58.6015 12.3196 58.6015C11.2838 58.6015 10.1739 58.8974 8.99001 59.4894C8.25009 59.7853 7.2882 60.3403 6.10433 61.1542C4.92046 61.9681 3.5886 62.634 2.10877 63.152C1.96078 63.226 1.73881 63.263 1.44284 63.263ZM28.6348 61.4872C30.5586 61.4872 32.4824 61.3022 34.4062 60.9322C36.33 60.4883 38.0688 59.9703 39.6226 59.3784C42.3603 58.3425 44.8761 56.8997 47.1698 55.0499C49.4636 53.1261 51.3134 50.8693 52.7192 48.2796C54.199 45.6159 54.939 42.6562 54.939 39.4006C54.939 37.2548 54.384 35.627 53.2741 34.5172C52.1643 33.3333 50.7584 32.5194 49.0566 32.0754C47.3548 31.6315 45.579 31.4095 43.7292 31.4095C42.3233 31.4095 40.9915 31.4835 39.7336 31.6315C38.4758 31.7795 37.3289 31.9644 36.293 32.1864C34.2212 32.5564 32.3714 32.9633 30.7436 33.4073C30.4477 33.2593 30.4846 33.0003 30.8546 32.6304C31.2246 32.1864 31.7055 31.7055 32.2974 31.1875C32.9634 30.6696 33.4813 30.2626 33.8513 29.9667C33.9993 29.8187 34.2952 29.5967 34.7392 29.3007C35.2571 28.9308 35.6641 28.7458 35.96 28.7458C39.5856 28.7458 42.8043 28.5238 45.616 28.0799C48.5017 27.6359 50.9804 26.563 53.0522 24.8612C55.1239 23.0854 56.8257 20.3477 58.1576 16.6481C58.8235 14.7244 59.1565 12.8376 59.1565 10.9878C59.1565 8.84201 58.6385 6.99221 57.6027 5.43838C56.5668 3.81056 54.902 2.84867 52.6082 2.55271C52.3122 2.47871 51.9793 2.44172 51.6093 2.44172C51.2394 2.44172 50.8694 2.44172 50.4994 2.44172C49.0936 2.44172 47.5398 2.6267 45.838 2.99666C44.2101 3.36661 42.9893 4.06954 42.1754 5.10543C40.3256 7.54715 38.5498 10.3218 36.8479 13.4295C35.1461 16.4632 33.5183 19.5708 31.9645 22.7525C30.4107 25.8601 28.9308 28.7828 27.525 31.5205C25.8232 34.8501 24.0843 38.2167 22.3085 41.6204C20.5327 45.024 18.7939 48.4646 17.0921 51.9422C16.6482 52.8301 16.4262 53.681 16.4262 54.4949C16.4262 55.9748 17.3511 57.4176 19.2009 58.8235C20.4587 59.7854 21.9016 60.4883 23.5294 60.9322C25.2312 61.3022 26.933 61.4872 28.6348 61.4872Z" fill="#AAAAAA"/>
</svg>
